<svg width="307" height="273" viewBox="0 0 307 273" fill="none" xmlns="http://www.w3.org/2000/svg">
<path fill-rule="evenodd" clip-rule="evenodd" d="M176.863 13.5C166.47 -4.50001 140.49 -4.49999 130.097 13.5L3.65759 232.5C-6.73471 250.5 6.25569 273 27.0403 273H33.3911C43.0373 273 51.9507 267.854 56.7738 259.5L147.418 102.5C150.112 97.8333 156.848 97.8333 159.542 102.5L250.186 259.5C255.009 267.854 263.923 273 273.569 273H279.92C300.704 273 313.695 250.5 303.302 232.5L176.863 13.5Z" fill="#97A6F0"/>
<path d="M148.65 177.5C150.574 174.167 155.386 174.167 157.31 177.5L182.858 221.75C184.782 225.083 182.377 229.25 178.528 229.25H127.432C123.583 229.25 121.178 225.083 123.102 221.75L148.65 177.5Z" fill="#97A6F0"/>
</svg>
