<svg width="999" height="239" viewBox="0 0 999 239" fill="none" xmlns="http://www.w3.org/2000/svg">
<g clip-path="url(#clip0)">
<path d="M377.87 47L296.06 236H252.86L171.32 47H218.57L276.08 182L334.4 47H377.87ZM482.807 239.24C463.187 239.24 445.457 235.01 429.617 226.55C413.957 218.09 401.627 206.48 392.627 191.72C383.807 176.78 379.397 160.04 379.397 141.5C379.397 122.96 383.807 106.31 392.627 91.55C401.627 76.61 413.957 64.91 429.617 56.45C445.457 47.99 463.187 43.76 482.807 43.76C502.427 43.76 520.067 47.99 535.727 56.45C551.387 64.91 563.717 76.61 572.717 91.55C581.717 106.31 586.217 122.96 586.217 141.5C586.217 160.04 581.717 176.78 572.717 191.72C563.717 206.48 551.387 218.09 535.727 226.55C520.067 235.01 502.427 239.24 482.807 239.24ZM482.807 201.98C493.967 201.98 504.047 199.46 513.047 194.42C522.047 189.2 529.067 182 534.107 172.82C539.327 163.64 541.937 153.2 541.937 141.5C541.937 129.8 539.327 119.36 534.107 110.18C529.067 101 522.047 93.89 513.047 88.85C504.047 83.63 493.967 81.02 482.807 81.02C471.647 81.02 461.567 83.63 452.567 88.85C443.567 93.89 436.457 101 431.237 110.18C426.197 119.36 423.677 129.8 423.677 141.5C423.677 153.2 426.197 163.64 431.237 172.82C436.457 182 443.567 189.2 452.567 194.42C461.567 199.46 471.647 201.98 482.807 201.98ZM746.8 138.53H786.76V215.21C776.5 222.95 764.62 228.89 751.12 233.03C737.62 237.17 724.03 239.24 710.35 239.24C690.73 239.24 673.09 235.1 657.43 226.82C641.77 218.36 629.44 206.75 620.44 191.99C611.62 177.05 607.21 160.22 607.21 141.5C607.21 122.78 611.62 106.04 620.44 91.28C629.44 76.34 641.86 64.73 657.7 56.45C673.54 47.99 691.36 43.76 711.16 43.76C727.72 43.76 742.75 46.55 756.25 52.13C769.75 57.71 781.09 65.81 790.27 76.43L762.19 102.35C748.69 88.13 732.4 81.02 713.32 81.02C701.26 81.02 690.55 83.54 681.19 88.58C671.83 93.62 664.54 100.73 659.32 109.91C654.1 119.09 651.49 129.62 651.49 141.5C651.49 153.2 654.1 163.64 659.32 172.82C664.54 182 671.74 189.2 680.92 194.42C690.28 199.46 700.9 201.98 712.78 201.98C725.38 201.98 736.72 199.28 746.8 193.88V138.53ZM955.101 138.53H995.061V215.21C984.801 222.95 972.921 228.89 959.421 233.03C945.921 237.17 932.331 239.24 918.651 239.24C899.031 239.24 881.391 235.1 865.731 226.82C850.071 218.36 837.741 206.75 828.741 191.99C819.921 177.05 815.511 160.22 815.511 141.5C815.511 122.78 819.921 106.04 828.741 91.28C837.741 76.34 850.161 64.73 866.001 56.45C881.841 47.99 899.661 43.76 919.461 43.76C936.021 43.76 951.051 46.55 964.551 52.13C978.051 57.71 989.391 65.81 998.571 76.43L970.491 102.35C956.991 88.13 940.701 81.02 921.621 81.02C909.561 81.02 898.851 83.54 889.491 88.58C880.131 93.62 872.841 100.73 867.621 109.91C862.401 119.09 859.791 129.62 859.791 141.5C859.791 153.2 862.401 163.64 867.621 172.82C872.841 182 880.041 189.2 889.221 194.42C898.581 199.46 909.201 201.98 921.081 201.98C933.681 201.98 945.021 199.28 955.101 193.88V138.53Z" fill="#A5B4FC"/>
<path fill-rule="evenodd" clip-rule="evenodd" d="M215.64 237.75L107.82 6L0 237.75H39.2412L108.5 89L177.759 237.75H215.64Z" fill="#A5B4FC"/>
</g>
<defs>
<clipPath id="clip0">
<rect width="999" height="239" fill="white"/>
</clipPath>
</defs>
</svg>
