<svg width="1020" height="239" viewBox="0 0 1020 239" fill="none" xmlns="http://www.w3.org/2000/svg">
<g clip-path="url(#clip0)">
<path d="M103.541 5L125 47H82L103.541 5Z" fill="url(#paint0_linear)"/>
<path fill-rule="evenodd" clip-rule="evenodd" d="M58.9789 195.52L73 163.085V161H73.7043L103.14 89.93L132.576 161H133V161.063L146.847 195.5H146.88L163.62 236H209.52L125.01 47L125 47H82L81.81 47L-2.42999 236H42.39L59.1143 195.538L58.9789 195.52ZM400.556 47L318.746 236H275.546L194.006 47H241.256L298.766 182L357.086 47H400.556ZM505.493 239.24C485.873 239.24 468.143 235.01 452.303 226.55C436.643 218.09 424.313 206.48 415.313 191.72C406.493 176.78 402.083 160.04 402.083 141.5C402.083 122.96 406.493 106.31 415.313 91.55C424.313 76.61 436.643 64.91 452.303 56.45C468.143 47.99 485.873 43.76 505.493 43.76C525.113 43.76 542.753 47.99 558.413 56.45C574.073 64.91 586.403 76.61 595.403 91.55C604.403 106.31 608.903 122.96 608.903 141.5C608.903 160.04 604.403 176.78 595.403 191.72C586.403 206.48 574.073 218.09 558.413 226.55C542.753 235.01 525.113 239.24 505.493 239.24ZM505.493 201.98C516.653 201.98 526.733 199.46 535.733 194.42C544.733 189.2 551.753 182 556.793 172.82C562.013 163.64 564.623 153.2 564.623 141.5C564.623 129.8 562.013 119.36 556.793 110.18C551.753 101 544.733 93.89 535.733 88.85C526.733 83.63 516.653 81.02 505.493 81.02C494.333 81.02 484.253 83.63 475.253 88.85C466.253 93.89 459.143 101 453.923 110.18C448.883 119.36 446.363 129.8 446.363 141.5C446.363 153.2 448.883 163.64 453.923 172.82C459.143 182 466.253 189.2 475.253 194.42C484.253 199.46 494.333 201.98 505.493 201.98ZM769.485 138.53H809.445V215.21C799.185 222.95 787.305 228.89 773.805 233.03C760.305 237.17 746.715 239.24 733.035 239.24C713.415 239.24 695.775 235.1 680.115 226.82C664.455 218.36 652.125 206.75 643.125 191.99C634.305 177.05 629.895 160.22 629.895 141.5C629.895 122.78 634.305 106.04 643.125 91.28C652.125 76.34 664.545 64.73 680.385 56.45C696.225 47.99 714.045 43.76 733.845 43.76C750.405 43.76 765.435 46.55 778.935 52.13C792.435 57.71 803.775 65.81 812.955 76.43L784.875 102.35C771.375 88.13 755.085 81.02 736.005 81.02C723.945 81.02 713.235 83.54 703.875 88.58C694.515 93.62 687.225 100.73 682.005 109.91C676.785 119.09 674.175 129.62 674.175 141.5C674.175 153.2 676.785 163.64 682.005 172.82C687.225 182 694.425 189.2 703.605 194.42C712.965 199.46 723.585 201.98 735.465 201.98C748.065 201.98 759.405 199.28 769.485 193.88V138.53ZM977.786 138.53H1017.75V215.21C1007.49 222.95 995.606 228.89 982.106 233.03C968.606 237.17 955.016 239.24 941.336 239.24C921.716 239.24 904.076 235.1 888.416 226.82C872.756 218.36 860.426 206.75 851.426 191.99C842.606 177.05 838.196 160.22 838.196 141.5C838.196 122.78 842.606 106.04 851.426 91.28C860.426 76.34 872.846 64.73 888.686 56.45C904.526 47.99 922.346 43.76 942.146 43.76C958.706 43.76 973.736 46.55 987.236 52.13C1000.74 57.71 1012.08 65.81 1021.26 76.43L993.176 102.35C979.676 88.13 963.386 81.02 944.306 81.02C932.246 81.02 921.536 83.54 912.176 88.58C902.816 93.62 895.526 100.73 890.306 109.91C885.086 119.09 882.476 129.62 882.476 141.5C882.476 153.2 885.086 163.64 890.306 172.82C895.526 182 902.726 189.2 911.906 194.42C921.266 199.46 931.886 201.98 943.766 201.98C956.366 201.98 967.706 199.28 977.786 193.88V138.53Z" fill="url(#paint1_linear)"/>
</g>
<defs>
<linearGradient id="paint0_linear" x1="34" y1="5" x2="467" y2="119" gradientUnits="userSpaceOnUse">
<stop stop-color="#57D8E0"/>
<stop offset="0.0001" stop-color="#57D8E0"/>
<stop offset="0.619489" stop-color="#7DA6DB"/>
</linearGradient>
<linearGradient id="paint1_linear" x1="-1.99994" y1="14.9997" x2="1353" y2="308.5" gradientUnits="userSpaceOnUse">
<stop stop-color="#57D8E0"/>
<stop offset="0.350388" stop-color="#7DA6DB"/>
<stop offset="0.761732" stop-color="#E12468"/>
</linearGradient>
<clipPath id="clip0">
<rect width="1020" height="239" fill="white"/>
</clipPath>
</defs>
</svg>
